<svg width="149" height="32" viewBox="0 0 149 32" fill="none" xmlns="http://www.w3.org/2000/svg">
<path d="M10.6667 29.3333C11.4031 29.3333 12 28.7364 12 28C12 27.2636 11.4031 26.6667 10.6667 26.6667C9.93033 26.6667 9.33337 27.2636 9.33337 28C9.33337 28.7364 9.93033 29.3333 10.6667 29.3333Z" stroke="white" stroke-width="2.66667" stroke-linecap="round" stroke-linejoin="round"/>
<path d="M25.3333 29.3333C26.0697 29.3333 26.6667 28.7364 26.6667 28C26.6667 27.2636 26.0697 26.6667 25.3333 26.6667C24.597 26.6667 24 27.2636 24 28C24 28.7364 24.597 29.3333 25.3333 29.3333Z" stroke="white" stroke-width="2.66667" stroke-linecap="round" stroke-linejoin="round"/>
<path d="M2.73328 2.73333H5.39994L8.94661 19.2933C9.07671 19.8998 9.41417 20.442 9.90089 20.8265C10.3876 21.211 10.9932 21.4138 11.6133 21.4H24.6533C25.2602 21.399 25.8486 21.1911 26.3213 20.8104C26.794 20.4298 27.1228 19.8994 27.2533 19.3067L29.4533 9.4H6.82661" stroke="white" stroke-width="2.66667" stroke-linecap="round" stroke-linejoin="round"/>
<path d="M50.9858 12.5653C50.9176 11.8778 50.625 11.3437 50.108 10.9631C49.5909 10.5824 48.8892 10.392 48.0028 10.392C47.4006 10.392 46.892 10.4773 46.4773 10.6477C46.0625 10.8125 45.7443 11.0426 45.5227 11.3381C45.3068 11.6335 45.1989 11.9688 45.1989 12.3438C45.1875 12.6562 45.2528 12.929 45.3949 13.1619C45.5426 13.3949 45.7443 13.5966 46 13.767C46.2557 13.9318 46.5511 14.0767 46.8864 14.2017C47.2216 14.321 47.5795 14.4233 47.9602 14.5085L49.5284 14.8835C50.2898 15.054 50.9886 15.2812 51.625 15.5653C52.2614 15.8494 52.8125 16.1989 53.2784 16.6136C53.7443 17.0284 54.1051 17.517 54.3608 18.0795C54.6222 18.642 54.7557 19.2869 54.7614 20.0142C54.7557 21.0824 54.483 22.0085 53.9432 22.7926C53.4091 23.571 52.6364 24.1761 51.625 24.608C50.6193 25.0341 49.4063 25.2472 47.9858 25.2472C46.5767 25.2472 45.3494 25.0312 44.304 24.5994C43.2642 24.1676 42.4517 23.5284 41.8665 22.6818C41.2869 21.8295 40.983 20.7756 40.9545 19.5199H44.5256C44.5653 20.1051 44.733 20.5937 45.0284 20.9858C45.3295 21.3722 45.7301 21.6648 46.2301 21.8636C46.7358 22.0568 47.3068 22.1534 47.9432 22.1534C48.5682 22.1534 49.1108 22.0625 49.571 21.8807C50.0369 21.6989 50.3977 21.446 50.6534 21.1222C50.9091 20.7983 51.0369 20.4261 51.0369 20.0057C51.0369 19.6136 50.9205 19.2841 50.6875 19.017C50.4602 18.75 50.125 18.5227 49.6818 18.3352C49.2443 18.1477 48.7074 17.9773 48.071 17.8239L46.1705 17.3466C44.6989 16.9886 43.5369 16.429 42.6847 15.6676C41.8324 14.9062 41.4091 13.8807 41.4148 12.5909C41.4091 11.5341 41.6903 10.6108 42.2585 9.82102C42.8324 9.03125 43.6193 8.41477 44.6193 7.97159C45.6193 7.52841 46.7557 7.30682 48.0284 7.30682C49.3239 7.30682 50.4545 7.52841 51.4205 7.97159C52.392 8.41477 53.1477 9.03125 53.6875 9.82102C54.2273 10.6108 54.5057 11.5256 54.5227 12.5653H50.9858ZM60.8764 17.4318V25H57.2457V7.54545H60.7741V14.2188H60.9276C61.223 13.446 61.7003 12.8409 62.3594 12.4034C63.0185 11.9602 63.8452 11.7386 64.8395 11.7386C65.7486 11.7386 66.5412 11.9375 67.2173 12.3352C67.8991 12.7273 68.4276 13.2926 68.8026 14.0312C69.1832 14.7642 69.3707 15.642 69.3651 16.6648V25H65.7344V17.3125C65.7401 16.5057 65.5355 15.8778 65.1207 15.429C64.7116 14.9801 64.1378 14.7557 63.3991 14.7557C62.9048 14.7557 62.4673 14.8608 62.0866 15.071C61.7116 15.2812 61.4162 15.5881 61.2003 15.9915C60.9901 16.3892 60.8821 16.8693 60.8764 17.4318ZM78.2074 25.2557C76.8835 25.2557 75.7386 24.9744 74.7727 24.4119C73.8125 23.8437 73.071 23.054 72.5483 22.0426C72.0256 21.0256 71.7642 19.8466 71.7642 18.5057C71.7642 17.1534 72.0256 15.9716 72.5483 14.9602C73.071 13.9432 73.8125 13.1534 74.7727 12.5909C75.7386 12.0227 76.8835 11.7386 78.2074 11.7386C79.5312 11.7386 80.6733 12.0227 81.6335 12.5909C82.5994 13.1534 83.3438 13.9432 83.8665 14.9602C84.3892 15.9716 84.6506 17.1534 84.6506 18.5057C84.6506 19.8466 84.3892 21.0256 83.8665 22.0426C83.3438 23.054 82.5994 23.8437 81.6335 24.4119C80.6733 24.9744 79.5312 25.2557 78.2074 25.2557ZM78.2244 22.4432C78.8267 22.4432 79.3295 22.2727 79.733 21.9318C80.1364 21.5852 80.4403 21.1136 80.6449 20.517C80.8551 19.9205 80.9602 19.2415 80.9602 18.4801C80.9602 17.7188 80.8551 17.0398 80.6449 16.4432C80.4403 15.8466 80.1364 15.375 79.733 15.0284C79.3295 14.6818 78.8267 14.5085 78.2244 14.5085C77.6165 14.5085 77.1051 14.6818 76.6903 15.0284C76.2813 15.375 75.9716 15.8466 75.7614 16.4432C75.5568 17.0398 75.4545 17.7188 75.4545 18.4801C75.4545 19.2415 75.5568 19.9205 75.7614 20.517C75.9716 21.1136 76.2813 21.5852 76.6903 21.9318C77.1051 22.2727 77.6165 22.4432 78.2244 22.4432ZM87.0817 29.9091V11.9091H90.6612V14.108H90.8232C90.9822 13.7557 91.2124 13.3977 91.5135 13.0341C91.8203 12.6648 92.218 12.358 92.7067 12.1136C93.201 11.8636 93.8146 11.7386 94.5476 11.7386C95.5021 11.7386 96.3828 11.9886 97.1896 12.4886C97.9964 12.983 98.6413 13.7301 99.1243 14.7301C99.6072 15.7244 99.8487 16.9716 99.8487 18.4716C99.8487 19.9318 99.6129 21.1648 99.1413 22.1705C98.6754 23.1705 98.0391 23.929 97.2322 24.446C96.4311 24.9574 95.5334 25.2131 94.5391 25.2131C93.8345 25.2131 93.2351 25.0966 92.7408 24.8636C92.2521 24.6307 91.8516 24.3381 91.5391 23.9858C91.2266 23.6278 90.9879 23.267 90.8232 22.9034H90.7124V29.9091H87.0817ZM90.6357 18.4545C90.6357 19.233 90.7436 19.9119 90.9595 20.4915C91.1754 21.071 91.4879 21.5227 91.897 21.8466C92.3061 22.1648 92.8033 22.3239 93.3885 22.3239C93.9794 22.3239 94.4794 22.1619 94.8885 21.8381C95.2976 21.5085 95.6072 21.054 95.8175 20.4744C96.0334 19.8892 96.1413 19.2159 96.1413 18.4545C96.1413 17.6989 96.0362 17.0341 95.826 16.4602C95.6158 15.8864 95.3061 15.4375 94.897 15.1136C94.4879 14.7898 93.9851 14.6278 93.3885 14.6278C92.7976 14.6278 92.2976 14.7841 91.8885 15.0966C91.4851 15.4091 91.1754 15.8523 90.9595 16.4261C90.7436 17 90.6357 17.6761 90.6357 18.4545ZM102.408 25V7.54545H106.098V14.7472H113.589V7.54545H117.271V25H113.589V17.7898H106.098V25H102.408ZM128.711 19.4261V11.9091H132.342V25H128.856V22.6222H128.719C128.424 23.3892 127.933 24.0057 127.245 24.4716C126.563 24.9375 125.731 25.1705 124.748 25.1705C123.873 25.1705 123.103 24.9716 122.438 24.5739C121.773 24.1761 121.254 23.6108 120.879 22.8778C120.509 22.1449 120.322 21.267 120.316 20.2443V11.9091H123.947V19.5966C123.952 20.3693 124.16 20.9801 124.569 21.429C124.978 21.8778 125.526 22.1023 126.214 22.1023C126.651 22.1023 127.06 22.0028 127.441 21.804C127.822 21.5994 128.129 21.2983 128.362 20.9006C128.6 20.5028 128.717 20.0114 128.711 19.4261ZM135.384 25V7.54545H139.015V14.108H139.126C139.285 13.7557 139.515 13.3977 139.816 13.0341C140.123 12.6648 140.521 12.358 141.009 12.1136C141.504 11.8636 142.117 11.7386 142.85 11.7386C143.805 11.7386 144.685 11.9886 145.492 12.4886C146.299 12.983 146.944 13.7301 147.427 14.7301C147.91 15.7244 148.151 16.9716 148.151 18.4716C148.151 19.9318 147.915 21.1648 147.444 22.1705C146.978 23.1705 146.342 23.929 145.535 24.446C144.734 24.9574 143.836 25.2131 142.842 25.2131C142.137 25.2131 141.538 25.0966 141.043 24.8636C140.555 24.6307 140.154 24.3381 139.842 23.9858C139.529 23.6278 139.29 23.267 139.126 22.9034H138.964V25H135.384ZM138.938 18.4545C138.938 19.233 139.046 19.9119 139.262 20.4915C139.478 21.071 139.79 21.5227 140.2 21.8466C140.609 22.1648 141.106 22.3239 141.691 22.3239C142.282 22.3239 142.782 22.1619 143.191 21.8381C143.6 21.5085 143.91 21.054 144.12 20.4744C144.336 19.8892 144.444 19.2159 144.444 18.4545C144.444 17.6989 144.339 17.0341 144.129 16.4602C143.918 15.8864 143.609 15.4375 143.2 15.1136C142.79 14.7898 142.288 14.6278 141.691 14.6278C141.1 14.6278 140.6 14.7841 140.191 15.0966C139.788 15.4091 139.478 15.8523 139.262 16.4261C139.046 17 138.938 17.6761 138.938 18.4545Z" fill="white"/>
</svg>
