<svg width="16" height="16" viewBox="0 0 16 16" fill="none" xmlns="http://www.w3.org/2000/svg">
<path d="M8 5.33337C9.10457 5.33337 10 4.43794 10 3.33337C10 2.2288 9.10457 1.33337 8 1.33337C6.89543 1.33337 6 2.2288 6 3.33337C6 4.43794 6.89543 5.33337 8 5.33337Z" stroke="#0A0A0A" stroke-width="1.33333" stroke-linecap="round" stroke-linejoin="round"/>
<path d="M4.3334 5.33337C4.0449 5.33637 3.76516 5.43286 3.53616 5.60836C3.30717 5.78386 3.14128 6.02891 3.0634 6.30671L1.40006 12.3334C1.34966 12.5284 1.34412 12.7324 1.38385 12.9299C1.42358 13.1274 1.50755 13.3133 1.62945 13.4737C1.75135 13.6341 1.90801 13.7648 2.08767 13.8559C2.26732 13.9471 2.4653 13.9964 2.66673 14H13.3334C13.5392 14 13.7421 13.9523 13.9264 13.8607C14.1107 13.7691 14.2713 13.6361 14.3956 13.4721C14.5198 13.308 14.6045 13.1175 14.6429 12.9153C14.6812 12.7132 14.6723 12.5048 14.6167 12.3067L12.9334 6.33337C12.86 6.04898 12.6947 5.79679 12.4632 5.61596C12.2318 5.43514 11.9471 5.3358 11.6534 5.33337H4.3334Z" stroke="#0A0A0A" stroke-width="1.33333" stroke-linecap="round" stroke-linejoin="round"/>
</svg>
